<svg xmlns="http://www.w3.org/2000/svg" width="30" height="30" viewBox="0 0 30 30" fill="none">
<path opacity="0.3" d="M12.03 26.8281C17.6544 26.8281 22.2139 22.2687 22.2139 16.6443C22.2139 11.0199 17.6544 6.46045 12.03 6.46045C6.40565 6.46045 1.84619 11.0199 1.84619 16.6443C1.84619 22.2687 6.40565 26.8281 12.03 26.8281Z" fill="#B0EF8F"/>
<path d="M12.1454 24.5155L12.0163 24.2954C10.0432 20.9337 4.79998 13.7995 4.74702 13.7279L4.67139 13.6251L6.45771 11.8598L12.1123 15.8082C15.6725 11.1882 18.994 8.01503 21.1605 6.16201C23.5306 4.13499 25.0733 3.20182 25.0889 3.19288L25.124 3.17188H28.1541L27.8647 3.42964C20.4207 10.06 12.3522 24.1521 12.2718 24.2937L12.1454 24.5155Z" fill="#009045"/>
</svg>